<?xml version="1.0" encoding="UTF-8"?>
<svg version="1.1" xmlns="http://www.w3.org/2000/svg" width="813" height="206">
<path d="M0 0 C268.29 0 536.58 0 813 0 C813 67.98 813 135.96 813 206 C544.71 206 276.42 206 0 206 C0 138.02 0 70.04 0 0 Z " fill="#FEFCFC" transform="translate(0,0)"/>
<path d="M0 0 C51.81 0 103.62 0 157 0 C157 56.1 157 112.2 157 170 C153.04 170 149.08 170 145 170 C144.67 155.15 144.34 140.3 144 125 C120.24 125 96.48 125 72 125 C71.67 136.88 71.34 148.76 71 161 C65.38293444 155.38293444 65.38293444 155.38293444 63.01953125 151.8125 C62.50068359 151.03841797 61.98183594 150.26433594 61.44726562 149.46679688 C60.90779297 148.65275391 60.36832031 147.83871094 59.8125 147 C56.02401348 141.36638813 52.20029039 135.83457503 48 130.5 C43.92673491 125.31584443 40.19037695 119.96250721 36.5 114.5 C32.04882504 107.9140449 27.44189558 101.56759534 22.53515625 95.3125 C19.01581915 90.77466478 15.74718839 86.05675717 12.46069336 81.34912109 C8.38021945 75.50651163 4.19508856 69.76824677 0 64 C0 42.88 0 21.76 0 0 Z " fill="#FDFCFC" transform="translate(17,17)"/>
<path d="M0 0 C1.05272145 -0.00339833 1.05272145 -0.00339833 2.12671 -0.00686532 C4.49591244 -0.01323314 6.86505809 -0.01237419 9.23426819 -0.0115509 C10.92573115 -0.01454066 12.61719342 -0.01794276 14.30865479 -0.02172852 C18.91602457 -0.03059131 23.5233758 -0.03290758 28.13075328 -0.0335443 C31.9704491 -0.03449149 35.81014055 -0.03816757 39.64983469 -0.0417164 C48.70499965 -0.04986959 57.76015467 -0.05229984 66.81532288 -0.05158997 C76.17146926 -0.05098891 85.52755803 -0.06154424 94.88368982 -0.07733363 C102.90321053 -0.09038753 110.92271237 -0.09577477 118.94224364 -0.09513456 C123.73779132 -0.09487894 128.53328785 -0.09776512 133.328825 -0.10831261 C137.83739844 -0.11795754 142.34587144 -0.11809771 146.85444832 -0.11079597 C148.51293203 -0.10974563 150.17142189 -0.11213948 151.82989502 -0.11815643 C154.08666795 -0.1258162 156.34308876 -0.121272 158.59985352 -0.11352539 C159.86509826 -0.11407016 161.130343 -0.11461493 162.43392849 -0.1151762 C165.36341858 0.13371277 165.36341858 0.13371277 167.36341858 2.13371277 C167.55860256 4.60254525 167.62836914 6.95898837 167.61065674 9.42877197 C167.61307115 10.189316 167.61548557 10.94986002 167.61797315 11.73345083 C167.62363279 14.29542422 167.6149301 16.85715077 167.6063385 19.41911316 C167.60741081 21.25027535 167.60934874 23.08143721 167.61209106 24.91259766 C167.61695034 29.89589184 167.60927053 34.87909687 167.59913802 39.86238027 C167.59037633 45.06695412 167.59211459 50.27152502 167.59249878 55.47610474 C167.59156136 64.21656289 167.58286646 72.95698639 167.56922913 81.69743347 C167.55349788 91.8176155 167.54823114 101.93775957 167.54896468 112.05795294 C167.54957403 121.77559378 167.54447743 131.49322219 167.53617287 141.2108593 C167.53263292 145.35479771 167.53080861 149.49873173 167.53027916 153.64267159 C167.52927808 158.51730309 167.5232008 163.39190245 167.51311302 168.26652336 C167.51018058 170.0608793 167.50896415 171.85523893 167.50954056 173.64959717 C167.5100277 176.08831189 167.50441084 178.52693516 167.49713135 180.96563721 C167.49867995 181.68507651 167.50022855 182.40451581 167.50182408 183.1457563 C167.4775972 188.01953415 167.4775972 188.01953415 166.36341858 189.13371277 C164.22988684 189.23374566 162.09304316 189.26452324 159.95716858 189.26652527 C158.65650452 189.26781433 157.35584045 189.26910339 156.01576233 189.27043152 C155.3349762 189.26833679 154.65419006 189.26624207 153.95277405 189.26408386 C151.87213343 189.25873517 149.79170869 189.26402957 147.71107483 189.27043152 C145.76007874 189.26849792 145.76007874 189.26849792 143.76966858 189.26652527 C142.56632874 189.26539734 141.36298889 189.26426941 140.1231842 189.2631073 C137.36341858 189.13371277 137.36341858 189.13371277 136.36341858 188.13371277 C136.27054597 186.72146231 136.24595086 185.30462342 136.24989319 183.889328 C136.25001404 182.97582581 136.25013489 182.06232361 136.2502594 181.12113953 C136.25537537 180.15462463 136.26049133 179.18810974 136.26576233 178.19230652 C136.26676941 177.30869446 136.26777649 176.4250824 136.26881409 175.51469421 C136.27406327 172.20018728 136.28802441 168.88569878 136.30091858 165.57121277 C136.32154358 158.16683777 136.34216858 150.76246277 136.36341858 143.13371277 C117.55341858 143.13371277 98.74341858 143.13371277 79.36341858 143.13371277 C79.40302564 157.89825728 79.40302564 157.89825728 79.45350647 172.6627655 C79.45642551 174.50594526 79.4589741 176.34912565 79.46107483 178.19230652 C79.4661908 179.15882141 79.47130676 180.1253363 79.47657776 181.12113953 C79.47675903 182.49139282 79.47675903 182.49139282 79.47694397 183.889328 C79.47916458 184.68652756 79.48138519 185.48372711 79.4836731 186.30508423 C79.36341858 188.13371277 79.36341858 188.13371277 78.36341858 189.13371277 C75.65248108 189.62980652 75.65248108 189.62980652 72.36341858 189.13371277 C70.05530677 187.1384713 68.45015743 184.70599007 66.73841858 182.19621277 C66.22335754 181.4754657 65.70829651 180.75471863 65.17762756 180.01213074 C63.55415761 177.73192365 61.95836272 175.43393426 60.36341858 173.13371277 C59.36921465 171.7274269 58.37316766 170.32244191 57.37513733 168.91886902 C55.38299108 166.11263882 53.40104783 163.29959977 51.42591858 160.48136902 C48.29664532 156.02577461 45.11771396 151.60716306 41.92591858 147.19621277 C41.38805725 146.4529071 40.85019592 145.70960144 40.29603577 144.94377136 C39.20352029 143.4347955 38.11074586 141.92600709 37.01771545 140.41740417 C34.23423656 136.57492165 31.45467259 132.72961306 28.67591858 128.88371277 C28.13201477 128.13098083 27.58811096 127.3782489 27.02772522 126.60270691 C23.39409683 121.57038725 19.77946315 116.52493183 16.1778717 111.46965027 C12.17717254 105.85962301 8.13785322 100.27760048 4.0919342 94.70011902 C3.07724439 93.29869836 2.07358834 91.88920422 1.08261108 90.47091675 C-0.57733187 88.12911597 -0.57733187 88.12911597 -2.45269775 86.13964844 C-9.13160402 78.24929987 -8.55811763 70.10534855 -8.35533142 60.34855652 C-8.3447947 58.63890103 -8.33723498 56.92922486 -8.33250427 55.21954346 C-8.31158788 50.74933103 -8.24779681 46.28071651 -8.17552185 41.81108093 C-8.12343528 38.1462437 -8.10164532 34.48151388 -8.08139801 30.81638241 C-8.03926038 23.26299749 -7.97821426 15.70952395 -7.8611908 8.15690613 C-7.85378876 7.45620499 -7.84638672 6.75550385 -7.83876038 6.03356934 C-7.71820971 -0.62630021 -6.43638295 0.00852767 0 0 Z M0.36341858 10.13371277 C-5.881814 69.18706822 -5.881814 69.18706822 13.36341858 92.13371277 C23.11341858 105.63371277 32.86341858 119.13371277 42.61341858 132.63371277 C43.15031311 133.377099 43.68720764 134.12048523 44.2403717 134.88639832 C45.31721842 136.3774293 46.39404157 137.86847732 47.47084045 139.35954285 C50.27822008 143.24691291 53.08608165 147.13393361 55.89466858 151.02043152 C56.47539124 151.82416199 57.05611389 152.62789246 57.6544342 153.45597839 C58.7571455 154.98213083 59.85999957 156.50818012 60.96302795 158.03410339 C61.46640686 158.73084167 61.96978577 159.42757996 62.48841858 160.14543152 C62.96923889 160.8097821 63.4500592 161.47413269 63.94544983 162.15861511 C64.90974618 163.5017896 65.86518071 164.8513611 66.81263733 166.20646667 C67.97389369 167.86475074 69.1655798 169.50165743 70.36341858 171.13371277 C70.69341858 171.13371277 71.02341858 171.13371277 71.36341858 171.13371277 C71.69341858 159.25371277 72.02341858 147.37371277 72.36341858 135.13371277 C96.12341858 135.13371277 119.88341858 135.13371277 144.36341858 135.13371277 C144.69341858 149.98371277 145.02341858 164.83371277 145.36341858 180.13371277 C149.32341858 180.13371277 153.28341858 180.13371277 157.36341858 180.13371277 C157.36341858 124.03371277 157.36341858 67.93371277 157.36341858 10.13371277 C105.55341858 10.13371277 53.74341858 10.13371277 0.36341858 10.13371277 Z " fill="#ED2129" transform="translate(16.636581420898438,6.8662872314453125)"/>
<path d="M0 0 C9.4978125 -0.1546875 9.4978125 -0.1546875 19.1875 -0.3125 C21.1574292 -0.35802002 23.1273584 -0.40354004 25.15698242 -0.45043945 C38.85334317 -0.63410582 50.56577474 1.25820616 61 11 C68.22519254 18.14098284 72.22302531 26.16756583 72.375 36.375 C72.40560457 48.12981535 68.73651882 57.39736755 60.48046875 65.90234375 C54.86181703 70.65386497 47.96478866 74.13435515 40.52856445 74.11352539 C39.61530396 74.11340454 38.70204346 74.11328369 37.7611084 74.11315918 C36.32668396 74.10548523 36.32668396 74.10548523 34.86328125 74.09765625 C33.98168335 74.09664917 33.10008545 74.09564209 32.19177246 74.09460449 C28.89866841 74.08937263 25.6055829 74.07541136 22.3125 74.0625 C14.949375 74.041875 7.58625 74.02125 0 74 C0 49.58 0 25.16 0 0 Z " fill="#ED1E26" transform="translate(440,33)"/>
<path d="M0 0 C7.26 0 14.52 0 22 0 C22.721875 2.0625 23.44375 4.125 24.1875 6.25 C26.2049996 11.95246996 28.43716959 17.53086555 30.796875 23.1015625 C36 35.63636364 36 35.63636364 36 40 C36.66 40 37.32 40 38 40 C38.185625 38.6696875 38.185625 38.6696875 38.375 37.3125 C39 34 39 34 40.125 31.5625 C42.44846784 24.75805848 38.43752898 17.41177409 35.9375 11.125 C35.19537238 9.23225742 34.45441926 7.33905376 33.71484375 5.4453125 C33.38605225 4.61531738 33.05726074 3.78532227 32.71850586 2.93017578 C32 1 32 1 32 0 C39.26 0 46.52 0 54 0 C55.175625 2.92875 56.35125 5.8575 57.5625 8.875 C57.91642822 9.75526855 58.27035645 10.63553711 58.63500977 11.54248047 C62.15834885 20.33651318 65.56557415 29.16861925 69 38 C73.95 25.46 78.9 12.92 84 0 C87.3 0 90.6 0 94 0 C92.02987533 6.09809485 89.8490304 12.02395896 87.375 17.93359375 C87.03121811 18.76166534 86.68743622 19.58973694 86.33323669 20.44290161 C85.22529833 23.1090871 84.11278599 25.77333459 83 28.4375 C82.23556817 30.27392796 81.47132774 32.1104356 80.70727539 33.94702148 C74.86079017 47.98831348 68.96389872 62.00815447 63 76 C59.84728463 71.27092694 57.94268899 65.94913639 55.77709961 60.71313477 C54.94362132 58.70226841 54.10004587 56.69584325 53.25585938 54.68945312 C52.72072829 53.40130149 52.18620339 52.11289784 51.65234375 50.82421875 C51.16757568 49.65979248 50.68280762 48.49536621 50.18334961 47.2956543 C49.06134238 44.17083986 48.42661391 41.28483364 48 38 C47.34 38 46.68 38 46 38 C45.85522217 38.55220215 45.71044434 39.1044043 45.5612793 39.67333984 C43.3397114 47.61888236 40.11049208 55.08314747 36.8125 62.625 C36.24753604 63.92816407 35.68307932 65.23154817 35.11914062 66.53515625 C33.7519219 69.69265781 32.37789915 72.84714205 31 76 C28.42508821 73.42508821 27.46484582 70.53316077 26.1640625 67.203125 C25.88845993 66.50994171 25.61285736 65.81675842 25.3289032 65.10256958 C24.42273071 62.82027659 23.52383216 60.53519265 22.625 58.25 C21.99944364 56.66988597 21.37338075 55.08997238 20.74682617 53.51025391 C19.78461485 51.08359917 18.82295892 48.65673464 17.86338806 46.22903442 C15.76430321 40.91873256 13.64630139 35.61643855 11.51171875 30.3203125 C10.96597312 28.96452224 10.42023722 27.60872805 9.87451172 26.25292969 C8.85853578 23.72935377 7.84027952 21.20673735 6.82080078 18.68457031 C6.13026611 16.96512207 6.13026611 16.96512207 5.42578125 15.2109375 C5.02786377 14.22399902 4.62994629 13.23706055 4.2199707 12.22021484 C2.69323834 8.1902769 1.36276599 4.08829798 0 0 Z " fill="#ED1F26" transform="translate(515,33)"/>
<path d="M0 0 C7.92 0 15.84 0 24 0 C32.2400241 10.12545334 32.2400241 10.12545334 34.28515625 14.55078125 C36.74431167 19.59964314 39.61948114 24.14160048 42.8125 28.75 C44.194375 30.8125 45.57625 32.875 47 35 C47.33 23.45 47.66 11.9 48 0 C51.96 0 55.92 0 60 0 C60 24.75 60 49.5 60 75 C47 75 47 75 44.09399414 72.87060547 C43.49707764 71.87947754 42.90016113 70.88834961 42.28515625 69.8671875 C41.23618164 68.20719727 41.23618164 68.20719727 40.16601562 66.51367188 C39.46398291 65.30127931 38.76282897 64.08837752 38.0625 62.875 C37.30717439 61.64634792 36.54734998 60.42045093 35.78320312 59.19726562 C34.23501698 56.70492004 32.71303042 54.1993853 31.21142578 51.67871094 C28.52439464 47.18073599 25.69110536 42.78372404 22.85327148 38.37939453 C20.6210966 34.91130461 18.42152949 31.42335487 16.2265625 27.93164062 C15.17352225 26.27326991 14.0896841 24.63452616 13 23 C12.67 40.16 12.34 57.32 12 75 C8.04 75 4.08 75 0 75 C0 50.25 0 25.5 0 0 Z " fill="#ED232B" transform="translate(362,33)"/>
<path d="M0 0 C7.92 0 15.84 0 24 0 C32.2400241 10.12545334 32.2400241 10.12545334 34.28515625 14.55078125 C36.74431167 19.59964314 39.61948114 24.14160048 42.8125 28.75 C44.194375 30.8125 45.57625 32.875 47 35 C47.33 23.45 47.66 11.9 48 0 C51.96 0 55.92 0 60 0 C60 24.75 60 49.5 60 75 C47 75 47 75 44.06225586 72.82299805 C43.45260986 71.81277588 42.84296387 70.80255371 42.21484375 69.76171875 C41.86588547 69.21342407 41.51692719 68.66512939 41.15739441 68.10021973 C40.03844224 66.31989876 38.98968478 64.50792151 37.9375 62.6875 C37.17543196 61.44887899 36.40894852 60.21296426 35.63818359 58.97973633 C34.10301681 56.50854997 32.59417306 54.02433448 31.10791016 51.5234375 C28.71055335 47.49490773 26.19449768 43.54629362 23.66625977 39.59887695 C21.84312021 36.74648515 20.05288202 33.87451799 18.27001953 30.99682617 C16.55676286 28.30310716 14.7708208 25.6562312 13 23 C12.67 40.16 12.34 57.32 12 75 C8.04 75 4.08 75 0 75 C0 50.25 0 25.5 0 0 Z " fill="#ED232B" transform="translate(685,33)"/>
<path d="M0 0 C24 0 24 0 29.59765625 5.08203125 C31.45507812 8.34960937 31.45507812 8.34960937 33.0625 11.8125 C33.65869141 12.91271484 34.25488281 14.01292969 34.86914062 15.14648438 C35.99477472 17.22712754 37.08360538 19.32854617 38.11743164 21.45629883 C40.78247265 26.4729076 43.95024442 31.20752694 47 36 C47.33 24.12 47.66 12.24 48 0 C51.63 0 55.26 0 59 0 C59 24.42 59 48.84 59 74 C46 74 46 74 42.9921875 71.30078125 C42.23964103 69.99728448 41.5369184 68.66427441 40.875 67.3125 C40.00112974 65.76797319 39.12175684 64.22655269 38.23828125 62.6875 C37.7479541 61.80578125 37.25762695 60.9240625 36.75244141 60.015625 C33.51904952 54.45156028 29.91003997 49.12664808 26.35479736 43.76473999 C24.27843308 40.62803051 22.22049499 37.47927932 20.16015625 34.33203125 C17.45711259 30.20935685 14.73468111 26.10202167 12 22 C11.67 39.49 11.34 56.98 11 75 C7.37 75 3.74 75 0 75 C0 50.25 0 25.5 0 0 Z " fill="#ED1D25" transform="translate(212,33)"/>
<path d="M0 0 C7.26 0 14.52 0 22 0 C22.86165771 2.37348633 22.86165771 2.37348633 23.74072266 4.79492188 C25.66384164 10.091644 27.58774591 15.38808046 29.51215553 20.6843338 C30.67601989 23.88754238 31.83959315 27.09085599 33.00244141 30.29443359 C34.34719524 33.99865862 35.6930327 37.70248846 37.0390625 41.40625 C37.47285217 42.6017749 37.90664185 43.7972998 38.35357666 45.02905273 C40.19847467 50.10276487 42.05156278 55.17108894 43.98730469 60.2109375 C44.41648697 61.33066956 44.41648697 61.33066956 44.8543396 62.47302246 C45.58043505 64.35499401 46.31586264 66.23335823 47.05224609 68.11132812 C48 71 48 71 48 75 C40.74 75 33.48 75 26 75 C24.2675 70.3903125 24.2675 70.3903125 22.5 65.6875 C22.13455078 64.72287842 21.76910156 63.75825684 21.39257812 62.7644043 C21.10833984 62.00039307 20.82410156 61.23638184 20.53125 60.44921875 C20.23798828 59.66893311 19.94472656 58.88864746 19.64257812 58.0847168 C19 56 19 56 19 53 C10.42 53.33 1.84 53.66 -7 54 C-9.31 60.93 -11.62 67.86 -14 75 C-17.63 75 -21.26 75 -25 75 C-22.70950652 66.05275986 -19.8314077 57.37615045 -16.81152344 48.65600586 C-15.99834024 46.30770698 -15.19014495 43.95773789 -14.3828125 41.60742188 C-13.85966227 40.0884427 -13.33623434 38.56955913 -12.8125 37.05078125 C-12.57490967 36.36099686 -12.33731934 35.67121246 -12.0925293 34.96052551 C-10.68312094 30.89384135 -9.20374219 26.859436 -7.68295288 22.83317566 C-6.79410957 20.44735085 -5.97633366 18.04176198 -5.17578125 15.625 C-4.89903564 14.79226562 -4.62229004 13.95953125 -4.3371582 13.1015625 C-3.999021 12.07804687 -3.66088379 11.05453125 -3.3125 10 C-2.219375 6.7 -1.12625 3.4 0 0 Z " fill="#ED2128" transform="translate(305,33)"/>
<path d="M0 0 C7.26 0 14.52 0 22 0 C23.08539062 2.990625 24.17078125 5.98125 25.2890625 9.0625 C26.36129082 12.01504668 27.43380621 14.96748893 28.50634766 17.91992188 C29.2416726 19.94455293 29.97670727 21.96928943 30.71142578 23.99414062 C36.14244253 38.96092621 41.65434525 53.89186317 47.3359375 68.765625 C48 71 48 71 48 75 C40.74 75 33.48 75 26 75 C24.2675 70.111875 24.2675 70.111875 22.5 65.125 C22.13455078 64.09906738 21.76910156 63.07313477 21.39257812 62.01611328 C21.10833984 61.20899902 20.82410156 60.40188477 20.53125 59.5703125 C20.23798828 58.74289551 19.94472656 57.91547852 19.64257812 57.06298828 C19 55 19 55 19 53 C10.42 53.33 1.84 53.66 -7 54 C-9.31 60.93 -11.62 67.86 -14 75 C-17.63 75 -21.26 75 -25 75 C-23.31446692 68.51069765 -21.40415932 62.26283089 -19.08837891 55.97387695 C-17.26936993 51.00363283 -15.5425701 46.00176382 -13.8125 41 C-13.43101807 39.8980127 -13.04953613 38.79602539 -12.65649414 37.66064453 C-8.33701726 25.14060067 -4.16158289 12.57329298 0 0 Z " fill="#ED2128" transform="translate(628,33)"/>
<path d="M0 0 C3.96477327 0.47673834 5.00054225 2.47387104 7.4375 5.46875 C11.17858451 10.4591508 14.75965865 15.55835437 18.32421875 20.67578125 C21.5192223 25.25857219 24.78487499 29.78752569 28.06640625 34.30859375 C32.77462654 40.80495833 37.42552222 47.33851345 42.03808594 53.90307617 C45.19899232 58.39387609 48.39991447 62.85328022 51.62817383 67.29589844 C53.79627608 70.28201642 55.95314478 73.27606922 58.10498047 76.27392578 C59.03865288 77.57382987 59.97492219 78.87187523 60.91455078 80.16748047 C62.08392361 81.78742055 63.23223101 83.42250862 64.37890625 85.05859375 C65.00410156 85.9403125 65.62929687 86.82203125 66.2734375 87.73046875 C67.83062763 90.83544001 67.96416085 92.87736133 67.56640625 96.30859375 C66.90640625 96.96859375 66.24640625 97.62859375 65.56640625 98.30859375 C63.23046875 98.28125 63.23046875 98.28125 60.56640625 97.30859375 C58.27734375 94.9296875 58.27734375 94.9296875 55.94140625 91.74609375 C55.5131958 91.16819092 55.08498535 90.59028809 54.64379883 89.99487305 C50.93874003 84.94801482 47.40148982 79.78036156 43.88208008 74.60302734 C40.38384244 69.46139189 36.78295769 64.403009 33.12890625 59.37109375 C28.32310654 52.75313085 23.57025801 46.10160791 18.87524414 39.40454102 C16.08055344 35.42553176 13.24437711 31.47932051 10.38208008 27.54858398 C9.66619217 26.56518539 8.95030426 25.5817868 8.21272278 24.56858826 C7.66943832 23.82279007 7.12615387 23.07699188 6.56640625 22.30859375 C6.56054001 23.20173279 6.55467377 24.09487183 6.54862976 25.01507568 C6.49072866 33.43164129 6.41866684 41.84794078 6.33069134 50.26424789 C6.28596164 54.59118539 6.24671137 58.91802816 6.2199707 63.24511719 C6.19396347 67.4209346 6.15357971 71.59638803 6.10321999 75.77198029 C6.08653373 77.36512983 6.0750304 78.95834236 6.06879234 80.55156708 C6.05917006 82.78313871 6.03113519 85.01377545 5.9987793 87.24511719 C5.98212471 89.15040192 5.98212471 89.15040192 5.96513367 91.09417725 C5.54568169 94.47566875 4.87490698 95.86600661 2.56640625 98.30859375 C-2.18359375 97.55859375 -2.18359375 97.55859375 -4.43359375 95.30859375 C-4.63241777 92.36680107 -4.70624829 89.51912026 -4.69238281 86.57617188 C-4.69763977 85.21992958 -4.69763977 85.21992958 -4.70300293 83.83628845 C-4.71182997 80.83739623 -4.70596766 77.83873851 -4.69921875 74.83984375 C-4.70056512 72.76241002 -4.70250542 70.68497659 -4.70501709 68.60754395 C-4.70796967 64.24956264 -4.70366639 59.89166321 -4.69433594 55.53369141 C-4.68294136 49.93783298 -4.68950011 44.34216638 -4.70148087 38.746315 C-4.70869583 34.45532781 -4.70641321 30.16438637 -4.70122528 25.87339783 C-4.69988778 23.80964638 -4.70154 21.74589082 -4.70618439 19.68214417 C-4.71124365 16.80165551 -4.70354784 13.9214808 -4.69238281 11.04101562 C-4.69643127 10.18172958 -4.70047974 9.32244354 -4.70465088 8.43711853 C-4.64808167 0.58940361 -4.64808167 0.58940361 0 0 Z " fill="#0C0C0C" transform="translate(10.43359375,98.69140625)"/>
<path d="M0 0 C2.375 0.75 2.375 0.75 3.375 1.75 C3.46833705 3.34610982 3.49245372 4.94633428 3.48852539 6.54516602 C3.48840454 7.58048462 3.48828369 8.61580322 3.48815918 9.68249512 C3.48048523 11.32659363 3.48048523 11.32659363 3.47265625 13.00390625 C3.47164917 14.00546753 3.47064209 15.00702881 3.46960449 16.03894043 C3.46435429 19.79680519 3.45039317 23.55465369 3.4375 27.3125 C3.416875 35.706875 3.39625 44.10125 3.375 52.75 C22.185 52.75 40.995 52.75 60.375 52.75 C60.29582013 37.04314442 60.29582013 37.04314442 60.19482422 21.33642578 C60.18898503 19.37272355 60.18388812 17.40901892 60.1796875 15.4453125 C60.16945557 14.41913818 60.15922363 13.39296387 60.14868164 12.33569336 C60.14831909 10.87425903 60.14831909 10.87425903 60.14794922 9.38330078 C60.143508 8.53502716 60.13906677 7.68675354 60.13449097 6.81277466 C60.375 4.75 60.375 4.75 62.375 2.75 C65.375 2.4375 65.375 2.4375 68.375 2.75 C70.59497157 6.07995735 70.6272647 7.13447069 70.63378906 11.01586914 C70.64009338 12.09030777 70.64639771 13.1647464 70.65289307 14.27174377 C70.6488446 15.43116989 70.64479614 16.59059601 70.640625 17.78515625 C70.64253845 18.97475449 70.6444519 20.16435272 70.64642334 21.38999939 C70.64778507 23.90591646 70.64408947 26.42184055 70.63574219 28.93774414 C70.6250334 32.80045249 70.63564305 36.66269671 70.6484375 40.52539062 C70.64711609 42.96614686 70.64455408 45.40690281 70.640625 47.84765625 C70.64467346 49.0091066 70.64872192 50.17055695 70.65289307 51.36720276 C70.64343658 52.97413246 70.64343658 52.97413246 70.63378906 54.61352539 C70.63219788 55.55933975 70.63060669 56.50515411 70.62896729 57.47962952 C70.375 59.75 70.375 59.75 68.375 61.75 C65.41455078 62.00396729 65.41455078 62.00396729 61.5703125 62.00878906 C60.52130768 62.01404602 60.52130768 62.01404602 59.45111084 62.01940918 C57.13397362 62.02822876 54.81714045 62.0223767 52.5 62.015625 C50.89339133 62.01697159 49.28678305 62.01891207 47.68017578 62.02142334 C44.31083298 62.0243749 40.94159613 62.02007597 37.57226562 62.01074219 C33.24760506 61.99934758 28.92319271 62.00590689 24.59854126 62.01788712 C21.2803357 62.02510488 17.96218925 62.02281819 14.64398193 62.01763153 C13.049133 62.0162948 11.45427875 62.01794358 9.85943604 62.02259064 C7.63270802 62.02765456 5.40638524 62.01994788 3.1796875 62.00878906 C1.27678955 62.00640228 1.27678955 62.00640228 -0.66455078 62.00396729 C-3.625 61.75 -3.625 61.75 -5.625 59.75 C-5.88569641 57.36573792 -5.88569641 57.36573792 -5.8996582 54.33813477 C-5.90919022 53.20678604 -5.91872223 52.07543732 -5.92854309 50.9098053 C-5.92763168 49.68273361 -5.92672028 48.45566193 -5.92578125 47.19140625 C-5.93006638 45.93617661 -5.9343515 44.68094696 -5.93876648 43.38768005 C-5.94451898 40.72860794 -5.94593459 38.06992283 -5.94067383 35.41088867 C-5.93488048 32.00318163 -5.95180391 28.59601835 -5.9750185 25.18840122 C-5.99329349 21.93940678 -5.9895706 18.69044287 -5.98828125 15.44140625 C-5.997491 14.2163588 -6.00670074 12.99131134 -6.01618958 11.72914124 C-6.00996078 10.59464035 -6.00373199 9.46013947 -5.99731445 8.29125977 C-5.99794388 7.29135513 -5.9985733 6.2914505 -5.9992218 5.26124573 C-5.625 2.75 -5.625 2.75 -4.26579285 0.88804626 C-2.625 -0.25 -2.625 -0.25 0 0 Z " fill="#070707" transform="translate(92.625,74.25)"/>
<path d="M0 0 C6.93 0 13.86 0 21 0 C21 24.75 21 49.5 21 75 C14.07 75 7.14 75 0 75 C0 50.25 0 25.5 0 0 Z " fill="#ED1E26" transform="translate(763,33)"/>
<path d="M0 0 C15.4 0 15.4 0 21.625 5.1875 C28.46388011 13.28617381 29.54004935 21.66800316 29 32 C28.11751012 39.8541599 25.19851235 46.09902369 19.3125 51.4375 C12.32316681 56.16002243 12.4810864 54 0 54 C0 36.18 0 18.36 0 0 Z " fill="#FEFCFC" transform="translate(461,43)"/>
<path d="M0 0 C4.98973281 2.97698881 8.76973378 6.43029508 10.64453125 12.0546875 C11.42849464 18.57057991 10.43126454 23.65032058 6.64453125 29.0546875 C1.18764517 34.23872927 -3.19993137 35.51904825 -10.59765625 35.37109375 C-15.89352012 34.76349464 -19.04444835 32.47200686 -22.66796875 28.5546875 C-26.41218016 23.00770763 -27.18733826 18.71991359 -26.35546875 12.0546875 C-24.38920035 6.43222274 -20.56370802 2.94672604 -15.52734375 -0.0234375 C-10.70078846 -2.07211924 -4.84057364 -1.94265145 0 0 Z " fill="#0C0C0C" transform="translate(553.35546875,117.9453125)"/>
<path d="M0 0 C4.00521387 2.88747977 7.46370991 6.48991981 9.6875 10.9375 C10.42558652 17.79116051 10.46455426 23.65142766 6.21875 29.3125 C1.77192227 34.03158249 -1.92508119 35.18933018 -8.25 35.5 C-14.1020598 35.2802731 -18.0314439 33.96128109 -22.3125 29.9375 C-26.71055636 24.65983237 -26.99157895 19.8221754 -26.7578125 13.03515625 C-25.87051887 6.86301722 -22.95080688 4.21537937 -18.1875 0.5 C-12.49696837 -2.38884757 -5.92399742 -1.90015012 0 0 Z " fill="#090909" transform="translate(594.3125,118.0625)"/>
<path d="M0 0 C2.97 -0.0825 5.94 -0.165 9 -0.25 C10.37865234 -0.30462402 10.37865234 -0.30462402 11.78515625 -0.36035156 C18.30857621 -0.44706941 23.77016534 0.85950441 28.56225586 5.51904297 C32.59307 10.22607216 33.4186132 13.27162965 33.33984375 19.328125 C32.79019446 23.6495056 31.0602258 26.91959688 28 30 C22.05914446 34.37828676 17.28739909 34.50479085 10.0625 34.25 C6.741875 34.1675 3.42125 34.085 0 34 C0 22.78 0 11.56 0 0 Z " fill="#060606" transform="translate(465,118)"/>
<path d="M0 0 C3.3 0 6.6 0 10 0 C11.0067004 2.26807204 12.00551766 4.53907754 13 6.8125 C13.28617188 7.45509766 13.57234375 8.09769531 13.8671875 8.75976562 C15.13711041 11.67756469 16 13.78265714 16 17 C16.66 17 17.32 17 18 17 C18.16822266 15.95779297 18.16822266 15.95779297 18.33984375 14.89453125 C19.08446115 11.62967036 20.24400088 8.76399795 21.5625 5.6875 C22.24505859 4.08455078 22.24505859 4.08455078 22.94140625 2.44921875 C23.29074219 1.64097656 23.64007812 0.83273438 24 0 C27.3 0 30.6 0 34 0 C34 11.22 34 22.44 34 34 C31.03 34 28.06 34 25 34 C24.505 24.1 24.505 24.1 24 14 C21.36 20.6 18.72 27.2 16 34 C15.34 34 14.68 34 14 34 C11.36 27.73 8.72 21.46 6 15 C5.67 21.27 5.34 27.54 5 34 C3.35 34 1.7 34 0 34 C0 22.78 0 11.56 0 0 Z " fill="#070707" transform="translate(610,118)"/>
<path d="M0 0 C3.3 0 6.6 0 10 0 C10 4.95 10 9.9 10 15 C13.3 15 16.6 15 20 15 C20 10.05 20 5.1 20 0 C23.3 0 26.6 0 30 0 C30 11.22 30 22.44 30 34 C26.7 34 23.4 34 20 34 C20 29.05 20 24.1 20 19 C16.7 19 13.4 19 10 19 C10 23.95 10 28.9 10 34 C6.7 34 3.4 34 0 34 C0 22.78 0 11.56 0 0 Z " fill="#0A0A0A" transform="translate(357,118)"/>
<path d="M0 0 C3.63 0 7.26 0 11 0 C13.65413462 2.67002764 14.97789992 4.32134658 16.6875 7.5 C17.11482422 8.21542969 17.54214844 8.93085937 17.98242188 9.66796875 C19.02451839 11.42431118 20.01744778 13.20966623 21 15 C21.33 10.05 21.66 5.1 22 0 C23.65 0 25.3 0 27 0 C27 11.22 27 22.44 27 34 C25.02 34 23.04 34 21 34 C18.97060135 31.65627344 17.50007254 29.62671684 15.9375 27 C15.52951172 26.35160156 15.12152344 25.70320313 14.70117188 25.03515625 C13.92144273 23.79103866 13.14998152 22.54166449 12.39038086 21.28515625 C10.29239082 17.83701107 8.13920516 14.42272825 6 11 C5.67 18.59 5.34 26.18 5 34 C3.35 34 1.7 34 0 34 C0 22.78 0 11.56 0 0 Z " fill="#050505" transform="translate(429,118)"/>
<path d="M0 0 C3.63 0 7.26 0 11 0 C12.71101994 4.68065582 14.41996296 9.36206251 16.12695312 14.04418945 C16.70840801 15.63814982 17.2904382 17.23190045 17.87304688 18.82543945 C18.70853218 21.11094645 19.54197139 23.39719037 20.375 25.68359375 C20.63748535 26.40026718 20.8999707 27.11694061 21.17041016 27.85533142 C23 32.88612829 23 32.88612829 23 34 C19.37 34 15.74 34 12 34 C11.01 31.03 10.02 28.06 9 25 C5.04 24.67 1.08 24.34 -3 24 C-3.99 27.3 -4.98 30.6 -6 34 C-7.32 34 -8.64 34 -10 34 C-9.42834741 29.23974086 -8.4748238 24.94701652 -6.93359375 20.41015625 C-6.53076172 19.21455078 -6.12792969 18.01894531 -5.71289062 16.78710938 C-5.29201172 15.55798828 -4.87113281 14.32886719 -4.4375 13.0625 C-4.00790487 11.79380883 -3.57886341 10.52493004 -3.15039062 9.25585938 C-2.10568206 6.16868688 -1.05540218 3.08352965 0 0 Z " fill="#0A0A0A" transform="translate(402,118)"/>
<path d="M0 0 C45.87 0 91.74 0 139 0 C139 1.32 139 2.64 139 4 C93.13 4 47.26 4 0 4 C0 2.68 0 1.36 0 0 Z " fill="#ED262E" transform="translate(649,131)"/>
<path d="M0 0 C45.54 0 91.08 0 138 0 C138 1.32 138 2.64 138 4 C92.46 4 46.92 4 0 4 C0 2.68 0 1.36 0 0 Z " fill="#EE2A31" transform="translate(212,129)"/>
<path d="M0 0 C3.64903808 3.64903808 4.16137311 7.75485867 4.3125 12.75 C4.23765132 17.80228622 3.4246502 22.12605167 0 26 C-3.5 27.3125 -3.5 27.3125 -7 27 C-11.49630546 22.62201837 -12.18988595 19.36779592 -12.3125 13.25 C-12.28269717 7.43844869 -12.06837906 4.18803727 -8 0 C-5.03475663 -1.48262169 -3.14877613 -0.83538959 0 0 Z " fill="#F3F3F3" transform="translate(590,122)"/>
<path d="M0 0 C2.97 0 5.94 0 9 0 C9 9.9 9 19.8 9 30 C13.29 30 17.58 30 22 30 C22 31.32 22 32.64 22 34 C14.74 34 7.48 34 0 34 C0 22.78 0 11.56 0 0 Z " fill="#000000" transform="translate(504,118)"/>
<path d="M0 0 C3.67374735 1.10212421 5.60442096 3.54223017 7.5 6.75 C8.0001345 9.66843193 8.20642055 11.86228447 8.125 14.75 C8.14433594 15.43578125 8.16367187 16.1215625 8.18359375 16.828125 C8.14659915 20.70515915 7.49786447 23.22418126 5.1171875 26.203125 C2.5 28.75 2.5 28.75 0 29.5 C-3.67374735 28.39787579 -5.60442096 25.95776983 -7.5 22.75 C-8.0001345 19.83156807 -8.20642055 17.63771553 -8.125 14.75 C-8.15400391 13.72132813 -8.15400391 13.72132813 -8.18359375 12.671875 C-8.14659915 8.79484085 -7.49786447 6.27581874 -5.1171875 3.296875 C-2.5 0.75 -2.5 0.75 0 0 Z " fill="#F6F6F6" transform="translate(545.5,120.25)"/>
<path d="M0 0 C7 0 7 0 11 3 C13.35616475 6.53424712 13.2981228 8.18644102 13.3125 12.375 C13.32925781 13.49648437 13.34601563 14.61796875 13.36328125 15.7734375 C12.96543005 19.30704066 12.08974284 21.15733511 10 24 C6.46161553 26.56227841 4.81203611 26 0 26 C0 17.42 0 8.84 0 0 Z " fill="#F2F2F2" transform="translate(474,122)"/>
<path d="M0 0 C2.27629118 2.27629118 2.85710124 3.92615211 3.9453125 6.9375 C4.29980469 7.91460937 4.65429688 8.89171875 5.01953125 9.8984375 C5.38433594 10.92195313 5.74914062 11.94546875 6.125 13 C6.68380859 14.53527344 6.68380859 14.53527344 7.25390625 16.1015625 C10 23.72624771 10 23.72624771 10 26 C4.06 26 -1.88 26 -8 26 C-6.56631605 16.82442273 -3.39097184 8.59472737 0 0 Z " fill="#FDF1F1" transform="translate(310,50)"/>
<path d="M0 0 C2.27629118 2.27629118 2.85710124 3.92615211 3.9453125 6.9375 C4.29980469 7.91460937 4.65429688 8.89171875 5.01953125 9.8984375 C5.38433594 10.92195313 5.74914062 11.94546875 6.125 13 C6.68380859 14.53527344 6.68380859 14.53527344 7.25390625 16.1015625 C10 23.72624771 10 23.72624771 10 26 C4.06 26 -1.88 26 -8 26 C-7.07412074 21.37060369 -5.89318881 16.95718648 -4.5625 12.4375 C-4.34529297 11.68275391 -4.12808594 10.92800781 -3.90429688 10.15039062 C-2.86155485 6.59629994 -1.84644167 3.23771399 0 0 Z " fill="#FEF2F3" transform="translate(633,50)"/>
<path d="M0 0 C2.86972996 1.99633389 4.65210765 3.47229883 5.44921875 6.97265625 C5.63167186 10.33860155 5.25737768 12.59849083 3.4375 15.4375 C0.16434238 17.53567796 -2.11417724 18 -6 18 C-8.80189446 16.23358828 -10.51524911 14.96950178 -12 12 C-12.4375 8.6875 -12.4375 8.6875 -12 5 C-8.35740398 0.92376159 -5.51295534 -1.17296922 0 0 Z " fill="#ED272F" transform="translate(531,159)"/>
<path d="M0 0 C4.25331827 0.86802414 6.18199992 2.40158324 9.0625 5.625 C9.80413232 9.778141 9.51143783 11.79895439 7.5 15.5 C4.24673621 18.33617869 2.36694539 18.77342915 -1.9375 18.625 C-5.21273158 16.77896038 -7.42527812 15.44338767 -8.484375 11.68359375 C-8.75684893 7.6948782 -8.16513916 5.94637293 -5.8125 2.625 C-2.9375 0.625 -2.9375 0.625 0 0 Z " fill="#EF373E" transform="translate(476.9375,158.375)"/>
<path d="M0 0 C2.69990662 1.79993774 4.5418865 3.083773 6 6 C6.52981019 9.97357645 6.31881474 11.54170381 4 14.875 C-0.14563015 17.81148802 -1.99328289 17.7152453 -7 17 C-9.5 15.5625 -9.5 15.5625 -11 13 C-11.60303852 9.8699429 -11.65919094 7.12399182 -11 4 C-7.77123438 0.10648852 -4.96361941 -0.8272699 0 0 Z " fill="#ED262D" transform="translate(460,159)"/>
<path d="M0 0 C2.875 1.4375 2.875 1.4375 5 4 C5.90187251 8.27409147 5.70695207 11.7397811 3.5625 15.5625 C-0.14548546 17.6425894 -3.83986986 17.85041334 -8 17 C-10.68063522 14.95153273 -10.9945796 14.02090726 -11.875 10.625 C-12.01492604 6.56714491 -11.50204885 5.12756107 -9 2 C-5.48746854 -0.34168764 -4.13530644 -0.49623677 0 0 Z " fill="#EE2B32" transform="translate(401,159)"/>
<path d="M0 0 C0.66 0 1.32 0 2 0 C2 24.09 2 48.18 2 73 C4.64 73 7.28 73 10 73 C10 55.84 10 38.68 10 21 C10.33 21 10.66 21 11 21 C11 38.82 11 56.64 11 75 C7.37 75 3.74 75 0 75 C0 50.25 0 25.5 0 0 Z " fill="#ED2931" transform="translate(212,33)"/>
<path d="M0 0 C10.625 -0.25 10.625 -0.25 14 2 C14.3762831 4.85975156 14.29814633 6.46996209 12.875 9 C11.69689905 11.09393753 11.69689905 11.09393753 12.875 13.75 C13.24625 14.4925 13.6175 15.235 14 16 C11.6875 16.3125 11.6875 16.3125 9 16 C7.1875 13.5 7.1875 13.5 6 11 C5.67 12.65 5.34 14.3 5 16 C3.35 16 1.7 16 0 16 C0 10.72 0 5.44 0 0 Z " fill="#EE2E35" transform="translate(596,160)"/>
<path d="M0 0 C1.65 0 3.3 0 5 0 C5.99 1.98 6.98 3.96 8 6 C8.99 4.02 9.98 2.04 11 0 C12.65 0 14.3 0 16 0 C16 5.28 16 10.56 16 16 C14.35 16 12.7 16 11 16 C10.67 14.02 10.34 12.04 10 10 C9.34 11.98 8.68 13.96 8 16 C7.34 16 6.68 16 6 16 C5.01 13.36 4.02 10.72 3 8 C2.67 10.64 2.34 13.28 2 16 C1.34 16 0.68 16 0 16 C0 10.72 0 5.44 0 0 Z " fill="#ED2A31" transform="translate(772,160)"/>
<path d="M0 0 C1.65 0 3.3 0 5 0 C6.4606285 2.64738916 7 3.89448334 7 7 C7.66 7 8.32 7 9 7 C9.66 4.69 10.32 2.38 11 0 C12.65 0 14.3 0 16 0 C16 5.28 16 10.56 16 16 C14.68 16 13.36 16 12 16 C11.67 13.03 11.34 10.06 11 7 C10.01 9.97 9.02 12.94 8 16 C7.34 16 6.68 16 6 16 C5.01 13.36 4.02 10.72 3 8 C2.67 10.64 2.34 13.28 2 16 C1.34 16 0.68 16 0 16 C0 10.72 0 5.44 0 0 Z " fill="#ED2A31" transform="translate(490,160)"/>
<path d="M0 0 C1.65 0 3.3 0 5 0 C5 1.98 5 3.96 5 6 C6.32 6 7.64 6 9 6 C9 4.02 9 2.04 9 0 C10.65 0 12.3 0 14 0 C14 5.28 14 10.56 14 16 C12.35 16 10.7 16 9 16 C9 13.69 9 11.38 9 9 C7.68 9 6.36 9 5 9 C5 11.31 5 13.62 5 16 C3.35 16 1.7 16 0 16 C0 10.72 0 5.44 0 0 Z " fill="#EC1D25" transform="translate(371,160)"/>
<path d="M0 0 C1.32 0 2.64 0 4 0 C4 2.31 4 4.62 4 7 C5.65 7 7.3 7 9 7 C9 4.69 9 2.38 9 0 C10.65 0 12.3 0 14 0 C14 5.28 14 10.56 14 16 C12.35 16 10.7 16 9 16 C9 13.69 9 11.38 9 9 C7.35 9 5.7 9 4 9 C4 11.31 4 13.62 4 16 C2.68 16 1.36 16 0 16 C0 10.72 0 5.44 0 0 Z " fill="#ED2A31" transform="translate(657,160)"/>
<path d="M0 0 C1.65 0 3.3 0 5 0 C5.66 1.98 6.32 3.96 7 6 C7 4.02 7 2.04 7 0 C8.65 0 10.3 0 12 0 C12.66 1.98 13.32 3.96 14 6 C14.99 4.02 15.98 2.04 17 0 C17.66 0 18.32 0 19 0 C18.43174347 5.54050113 16.37113483 10.03715966 14 15 C13.34 15 12.68 15 12 15 C11.34 13.35 10.68 11.7 10 10 C8.06201737 12.77260299 8.06201737 12.77260299 7 15 C6.34 15 5.68 15 5 15 C4.16260219 12.8765984 3.33019717 10.7512272 2.5 8.625 C1.80390625 6.84996094 1.80390625 6.84996094 1.09375 5.0390625 C0 2 0 2 0 0 Z " fill="#ED272F" transform="translate(409,160)"/>
<path d="M0 0 C8.3984375 -0.1953125 8.3984375 -0.1953125 11 0 C13 2 13 2 13.25 4.375 C13 7 13 7 11.875 9 C10.69689905 11.09393753 10.69689905 11.09393753 11.875 13.75 C12.24625 14.4925 12.6175 15.235 13 16 C11.35 16 9.7 16 8 16 C5 10.25 5 10.25 5 8 C6.32 7.67 7.64 7.34 9 7 C8.67 5.68 8.34 4.36 8 3 C6.68 2.67 5.36 2.34 4 2 C4 6.62 4 11.24 4 16 C2.68 16 1.36 16 0 16 C0 10.72 0 5.44 0 0 Z " fill="#EC1D25" transform="translate(432,160)"/>
<path d="M0 0 C1.98 0 3.96 0 6 0 C7.32 2.31 8.64 4.62 10 7 C10.33 4.69 10.66 2.38 11 0 C11.66 0 12.32 0 13 0 C13 5.28 13 10.56 13 16 C9 15 9 15 7.515625 13.15234375 C7.09796875 12.42144531 6.6803125 11.69054687 6.25 10.9375 C5.82203125 10.20402344 5.3940625 9.47054687 4.953125 8.71484375 C4.63859375 8.14894531 4.3240625 7.58304688 4 7 C3.67 9.97 3.34 12.94 3 16 C2.01 16 1.02 16 0 16 C0 10.72 0 5.44 0 0 Z " fill="#EE2A32" transform="translate(614,160)"/>
<path d="M0 0 C1.65 0 3.3 0 5 0 C5.33 4.62 5.66 9.24 6 14 C6.99 14 7.98 14 9 14 C9.33 9.71 9.66 5.42 10 1 C10.99 1 11.98 1 13 1 C13.05402274 3.10388569 13.09280256 5.20816714 13.125 7.3125 C13.14820313 8.48425781 13.17140625 9.65601563 13.1953125 10.86328125 C13 14 13 14 11 17 C8.90625 17.3984375 8.90625 17.3984375 6.5 17.375 C5.7059375 17.38273437 4.911875 17.39046875 4.09375 17.3984375 C3.4028125 17.26695312 2.711875 17.13546875 2 17 C-0.49118953 13.2632157 -0.2065226 11.25548181 -0.125 6.8125 C-0.10695313 5.54019531 -0.08890625 4.26789063 -0.0703125 2.95703125 C-0.04710937 1.98121094 -0.02390625 1.00539062 0 0 Z " fill="#F04A50" transform="translate(276,159)"/>
<path d="M0 0 C2.375 1.375 2.375 1.375 4 3 C4 3.66 4 4.32 4 5 C3.2575 4.649375 2.515 4.29875 1.75 3.9375 C-1.18064999 2.66081932 -1.18064999 2.66081932 -5 4 C-5 6.97 -5 9.94 -5 13 C-3.02 13.66 -1.04 14.32 1 15 C1 13.35 1 11.7 1 10 C2.32 10 3.64 10 5 10 C5.3125 12.3125 5.3125 12.3125 5 15 C2.05885809 17.67376537 0.41915815 18.00735365 -3.5625 17.9375 C-7.39717502 16.89167954 -8.85744848 16.34238038 -11 13 C-11.7152453 7.99328289 -11.81148802 6.14563015 -8.875 2 C-5.49736169 -0.34966143 -4.02695637 -0.68543938 0 0 Z " fill="#EE2D34" transform="translate(714,159)"/>
<path d="M0 0 C0.66 1.32 1.32 2.64 2 4 C-0.97 3.67 -3.94 3.34 -7 3 C-7 5.97 -7 8.94 -7 12 C-3.52852158 12.74957157 -3.52852158 12.74957157 0 13 C0 12.34 0 11.68 0 11 C0.66 11 1.32 11 2 11 C1.65660347 13.57547398 1.39993284 14.68894113 -0.6875 16.3125 C-3.90659978 17.26952966 -5.78807498 16.98324235 -9 16 C-12.2885563 13.4978376 -13.79401403 12.09859185 -14.5625 8 C-12.9158757 -0.78199628 -7.67370201 -0.65900113 0 0 Z " fill="#EE2C34" transform="translate(256,160)"/>
<path d="M0 0 C1.65 0 3.3 0 5 0 C7.3125 3 7.3125 3 9 6 C9.33 4.02 9.66 2.04 10 0 C10.66 0 11.32 0 12 0 C12 5.28 12 10.56 12 16 C6.81257257 13.40628629 5.86746405 10.9384103 3 6 C2.67 9.3 2.34 12.6 2 16 C1.34 16 0.68 16 0 16 C0 10.72 0 5.44 0 0 Z " fill="#ED1E26" transform="translate(686,160)"/>
<path d="M0 0 C0.33 0.99 0.66 1.98 1 3 C-1.97 2.505 -1.97 2.505 -5 2 C-3.66667905 5.99996286 -1.5042173 6.83782337 2 9 C1.625 11.9375 1.625 11.9375 1 15 C-2.04300316 16.52150158 -4.654085 16.23899393 -8 16 C-8.66 15.01 -9.32 14.02 -10 13 C-9.01 12.67 -8.02 12.34 -7 12 C-7 12.66 -7 13.32 -7 14 C-5.68 14 -4.36 14 -3 14 C-3.73976471 10.7074288 -3.73976471 10.7074288 -7.0625 9.125 C-10 7 -10 7 -10.625 4.4375 C-10 2 -10 2 -8.375 0.125 C-5.23335013 -1.36314994 -3.30955864 -0.82738966 0 0 Z " fill="#ED2931" transform="translate(651,160)"/>
<path d="M0 0 C0.99 0.66 1.98 1.32 3 2 C3 2.66 3 3.32 3 4 C0.69 3.67 -1.62 3.34 -4 3 C-4 3.99 -4 4.98 -4 6 C-3.030625 6.309375 -2.06125 6.61875 -1.0625 6.9375 C2 8 2 8 3 9 C3.1875 11.9375 3.1875 11.9375 3 15 C1 17 1 17 -2.5 17.3125 C-3.655 17.209375 -4.81 17.10625 -6 17 C-6.66 16.01 -7.32 15.02 -8 14 C-5.37886292 14 -3.49064888 14.31292445 -1 15 C-1.73976471 11.7074288 -1.73976471 11.7074288 -5.0625 10.125 C-8 8 -8 8 -8.5625 5.4375 C-7.41318034 0.45711479 -4.929688 -0.616211 0 0 Z " fill="#ED262E" transform="translate(301,159)"/>
<path d="M0 0 C0.66 0 1.32 0 2 0 C1.690625 0.7425 1.38125 1.485 1.0625 2.25 C-0.83917965 6.62711362 -0.83917965 6.62711362 -0.22265625 11.140625 C0.16019531 11.83671875 0.54304687 12.5328125 0.9375 13.25 C1.31777344 13.95640625 1.69804687 14.6628125 2.08984375 15.390625 C2.39019531 15.92171875 2.69054687 16.4528125 3 17 C1.35 17 -0.3 17 -2 17 C-2.66 15.35 -3.32 13.7 -4 12 C-4.66 12 -5.32 12 -6 12 C-6.66 13.65 -7.32 15.3 -8 17 C-8.66 17 -9.32 17 -10 17 C-9.690625 16.236875 -9.38125 15.47375 -9.0625 14.6875 C-8.32106407 12.81210323 -7.63771783 10.91315348 -7 9 C-7.95012124 6.97582866 -8.94991347 4.97416268 -10 3 C-10 2.34 -10 1.68 -10 1 C-7.625 0.8125 -7.625 0.8125 -5 1 C-4.34 1.99 -3.68 2.98 -3 4 C-2.54625 3.34 -2.0925 2.68 -1.625 2 C-1.08875 1.34 -0.5525 0.68 0 0 Z " fill="#EE2B32" transform="translate(238,159)"/>
<path d="M0 0 C1.670625 0.061875 1.670625 0.061875 3.375 0.125 C3.705 1.115 4.035 2.105 4.375 3.125 C2.725 2.795 1.075 2.465 -0.625 2.125 C-0.955 3.115 -1.285 4.105 -1.625 5.125 C-0.84125 5.41375 -0.0575 5.7025 0.75 6 C3.375 7.125 3.375 7.125 5.375 9.125 C5.625 11.625 5.625 11.625 5.375 14.125 C3.375 16.125 3.375 16.125 1.4296875 16.3203125 C-0.58854167 16.25520833 -2.60677083 16.19010417 -4.625 16.125 C-4.955 14.805 -5.285 13.485 -5.625 12.125 C-3.645 12.785 -1.665 13.445 0.375 14.125 C-0.36700654 10.9341795 -0.36700654 10.9341795 -3.1875 9.25 C-5.625 7.125 -5.625 7.125 -6.0625 4.5 C-5.30528599 0.38940963 -4.08987986 0.14103034 0 0 Z " fill="#ED2A31" transform="translate(361.625,159.875)"/>
<path d="M0 0 C1.32 0 2.64 0 4 0 C4.33 3.96 4.66 7.92 5 12 C6.32 12.33 7.64 12.66 9 13 C9.33 8.71 9.66 4.42 10 0 C10.66 0 11.32 0 12 0 C12.05384521 2.29141286 12.09272087 4.58318188 12.125 6.875 C12.14820313 8.15117187 12.17140625 9.42734375 12.1953125 10.7421875 C12 14 12 14 10 16 C8.125 16.265625 8.125 16.265625 6 16.25 C4.948125 16.25773437 4.948125 16.25773437 3.875 16.265625 C2 16 2 16 0 14 C-0.1953125 10.7421875 -0.1953125 10.7421875 -0.125 6.875 C-0.10695313 5.59367188 -0.08890625 4.31234375 -0.0703125 2.9921875 C-0.04710937 2.00476563 -0.02390625 1.01734375 0 0 Z " fill="#EC1D25" transform="translate(579,160)"/>
<path d="M0 0 C3.3 0 6.6 0 10 0 C10 0.66 10 1.32 10 2 C8.35 2 6.7 2 5 2 C5 3.32 5 4.64 5 6 C6.65 6 8.3 6 10 6 C10 6.99 10 7.98 10 9 C8.35 9 6.7 9 5 9 C5 11.31 5 13.62 5 16 C3.35 16 1.7 16 0 16 C0 10.72 0 5.44 0 0 Z " fill="#EE2E36" transform="translate(564,160)"/>
<path d="M0 0 C3.3 0 6.6 0 10 0 C10 0.66 10 1.32 10 2 C8.02 2 6.04 2 4 2 C4 3.65 4 5.3 4 7 C5.98 7 7.96 7 10 7 C10 7.66 10 8.32 10 9 C8.02 9 6.04 9 4 9 C4 10.65 4 12.3 4 14 C5.98 14 7.96 14 10 14 C10 14.66 10 15.32 10 16 C6.7 16 3.4 16 0 16 C0 10.72 0 5.44 0 0 Z " fill="#ED1F27" transform="translate(214,160)"/>
<path d="M0 0 C3.3 0 6.6 0 10 0 C10 0.66 10 1.32 10 2 C8.02 2 6.04 2 4 2 C4 3.65 4 5.3 4 7 C5.65 7 7.3 7 9 7 C9 7.66 9 8.32 9 9 C7.35 9 5.7 9 4 9 C4 10.65 4 12.3 4 14 C5.98 14 7.96 14 10 14 C10 14.66 10 15.32 10 16 C6.7 16 3.4 16 0 16 C0 10.72 0 5.44 0 0 Z " fill="#EC1D25" transform="translate(757,160)"/>
<path d="M0 0 C2.97 0 5.94 0 9 0 C9 0.66 9 1.32 9 2 C7.35 2 5.7 2 4 2 C4 3.65 4 5.3 4 7 C5.65 7 7.3 7 9 7 C9 7.66 9 8.32 9 9 C7.35 9 5.7 9 4 9 C4 10.65 4 12.3 4 14 C5.98 14 7.96 14 10 14 C10 14.66 10 15.32 10 16 C6.7 16 3.4 16 0 16 C0 10.72 0 5.44 0 0 Z " fill="#EC1D25" transform="translate(333,160)"/>
<path d="M0 0 C1.65 0 3.3 0 5 0 C5 4.62 5 9.24 5 14 C6.98 14 8.96 14 11 14 C11 14.66 11 15.32 11 16 C7.37 16 3.74 16 0 16 C0 10.72 0 5.44 0 0 Z " fill="#EE2B33" transform="translate(262,160)"/>
<path d="M0 0 C3.3 0 6.6 0 10 0 C10 0.66 10 1.32 10 2 C8.02 2 6.04 2 4 2 C4 3.65 4 5.3 4 7 C5.98 7 7.96 7 10 7 C10 7.66 10 8.32 10 9 C8.02 9 6.04 9 4 9 C4 11.31 4 13.62 4 16 C2.68 16 1.36 16 0 16 C0 10.72 0 5.44 0 0 Z " fill="#ED2028" transform="translate(541,160)"/>
<path d="M0 0 C-0.639375 0.28875 -1.27875 0.5775 -1.9375 0.875 C-4.15206079 1.82823451 -4.15206079 1.82823451 -5 4 C-5.33145428 8.03326581 -5.33145428 8.03326581 -5 12 C-3.17562116 13.93211944 -3.17562116 13.93211944 -1 15 C-0.67 15.66 -0.34 16.32 0 17 C-4.04152406 16.76683515 -6.33802764 16.5771041 -9.4375 13.875 C-11.41259601 10.24082335 -11.59363772 8.08125936 -11 4 C-8.07275826 -0.56649711 -5.15004683 -0.39615745 0 0 Z " fill="#ED2931" transform="translate(530,160)"/>
<path d="M0 0 C4.29 0 8.58 0 13 0 C13 0.66 13 1.32 13 2 C11.68 2 10.36 2 9 2 C9 6.62 9 11.24 9 16 C7.68 16 6.36 16 5 16 C5 11.38 5 6.76 5 2 C3.35 2 1.7 2 0 2 C0 1.34 0 0.68 0 0 Z " fill="#EC1B24" transform="translate(740,160)"/>
<path d="M0 0 C1.65 0 3.3 0 5 0 C6.4606285 2.64738916 7 3.89448334 7 7 C7.66 7 8.32 7 9 7 C9.66 4.69 10.32 2.38 11 0 C11.66 0 12.32 0 13 0 C10.10933941 10.55808656 10.10933941 10.55808656 7 15 C4.44772349 11.92849245 3.11223296 9.01474376 1.8125 5.25 C1.46832031 4.26515625 1.12414062 3.2803125 0.76953125 2.265625 C0.51558594 1.51796875 0.26164062 0.7703125 0 0 Z " fill="#ED2830" transform="translate(316,160)"/>
<path d="M0 0 C2.5625 0.25 2.5625 0.25 5 1 C6.38550197 3.77100394 6.1877467 5.9334706 6 9 C5.01 10.485 5.01 10.485 4 12 C1.5625 11.625 1.5625 11.625 -1 11 C-2.50662097 7.98675805 -2.17770373 5.31713623 -2 2 C-1.34 1.34 -0.68 0.68 0 0 Z " fill="#FDEEEE" transform="translate(396,162)"/>
<path d="M0 0 C1.65 0 3.3 0 5 0 C5 5.28 5 10.56 5 16 C3.35 16 1.7 16 0 16 C0 10.72 0 5.44 0 0 Z " fill="#EE3139" transform="translate(676,160)"/>
<path d="M0 0 C1.65 0 3.3 0 5 0 C5 5.28 5 10.56 5 16 C3.35 16 1.7 16 0 16 C0 10.72 0 5.44 0 0 Z " fill="#ED2A32" transform="translate(632,160)"/>
<path d="M0 0 C1.65 0 3.3 0 5 0 C5 5.28 5 10.56 5 16 C3.35 16 1.7 16 0 16 C0 10.72 0 5.44 0 0 Z " fill="#ED2A32" transform="translate(732,160)"/>
<path d="M0 0 C3.875 0.875 3.875 0.875 5 2 C5.07205511 3.68608966 5.08386068 5.37500659 5.0625 7.0625 C5.05347656 7.98160156 5.04445313 8.90070313 5.03515625 9.84765625 C5.02355469 10.55792969 5.01195312 11.26820313 5 12 C2.625 12.625 2.625 12.625 0 13 C-2.60704898 10.39295102 -2.23905333 8.52661759 -2.265625 4.97265625 C-2 3 -2 3 0 0 Z " fill="#FDEEEF" transform="translate(526,161)"/>
<path d="M0 0 C2.0625 0.25 2.0625 0.25 4 1 C5.12256131 3.24512262 5.13413762 4.51456649 5.125 7 C5.12757813 7.70125 5.13015625 8.4025 5.1328125 9.125 C5 11 5 11 4 13 C2.35 13 0.7 13 -1 13 C-2.17673198 10.64653604 -2.16623866 9.1193967 -2.1875 6.5 C-2.20167969 5.7059375 -2.21585937 4.911875 -2.23046875 4.09375 C-2 2 -2 2 0 0 Z " fill="#FDF0F0" transform="translate(476,161)"/>
<path d="M0 0 C3.875 1.875 3.875 1.875 5 3 C5.35897436 9.46153846 5.35897436 9.46153846 3 13 C1.35 12.67 -0.3 12.34 -2 12 C-2.05395478 10.37536158 -2.09277195 8.75021459 -2.125 7.125 C-2.14820313 6.22007812 -2.17140625 5.31515625 -2.1953125 4.3828125 C-2 2 -2 2 0 0 Z " fill="#FEF2F3" transform="translate(456,161)"/>
<path d="M0 0 C0.99 0 1.98 0 3 0 C3.66 2.97 4.32 5.94 5 9 C6.32 9 7.64 9 9 9 C9.66 8.34 10.32 7.68 11 7 C11.99 6.67 12.98 6.34 14 6 C14 7.32 14 8.64 14 10 C10.31082001 12.45945333 7.28300443 12.6807995 3 12 C0.5 10.4375 0.5 10.4375 -1 8 C-1.3125 4.3125 -1.3125 4.3125 -1 1 C-0.67 0.67 -0.34 0.34 0 0 Z " fill="#EE2D35" transform="translate(450,164)"/>
<path d="M0 0 C3.11398457 -0.21231713 5.45304074 -0.21590497 8.375 0.9375 C10.66733748 3.84700527 10.56007771 6.20790951 10.3828125 9.8359375 C10 12 10 12 8.375 14.5625 C5.40106977 16.3625104 3.41756151 16.31068741 0 16 C1.2375 14.948125 1.2375 14.948125 2.5 13.875 C5.2570528 11.23200007 5.2570528 11.23200007 5.4375 7.875 C5.17844932 4.80919458 5.17844932 4.80919458 3 2 C2.01 1.34 1.02 0.68 0 0 Z " fill="#ED2128" transform="translate(396,160)"/>
<path d="M0 0 C1.32 0 2.64 0 4 0 C4 2.31 4 4.62 4 7 C5.65 7 7.3 7 9 7 C9 7.33 9 7.66 9 8 C7.35 8 5.7 8 4 8 C4 10.64 4 13.28 4 16 C2.68 16 1.36 16 0 16 C0 10.72 0 5.44 0 0 Z " fill="#EC1921" transform="translate(657,160)"/>
<path d="M0 0 C1.32 0 2.64 0 4 0 C4 5.28 4 10.56 4 16 C2.68 16 1.36 16 0 16 C0 13.36 0 10.72 0 8 C-1.65 8 -3.3 8 -5 8 C-5 7.67 -5 7.34 -5 7 C-3.35 7 -1.7 7 0 7 C0 4.69 0 2.38 0 0 Z " fill="#EC1821" transform="translate(381,160)"/>
<path d="M0 0 C1.32 0 2.64 0 4 0 C4 5.28 4 10.56 4 16 C2.68 16 1.36 16 0 16 C-0.1958009 14.08416353 -0.38132214 12.16727461 -0.5625 10.25 C-0.66691406 9.18265625 -0.77132813 8.1153125 -0.87890625 7.015625 C-0.98560074 4.35858796 -0.81930395 2.50039428 0 0 Z " fill="#EC1B23" transform="translate(502,160)"/>
<path d="M0 0 C1.32 0 2.64 0 4 0 C4 5.28 4 10.56 4 16 C2.68 16 1.36 16 0 16 C0 10.72 0 5.44 0 0 Z " fill="#EC1A23" transform="translate(309,160)"/>
<path d="M0 0 C0.66 0 1.32 0 2 0 C2.50559908 1.43554025 3.0042749 2.8735202 3.5 4.3125 C3.7784375 5.11300781 4.056875 5.91351563 4.34375 6.73828125 C5 9 5 9 5 12 C2.36 12 -0.28 12 -3 12 C-2.01 8.04 -1.02 4.08 0 0 Z " fill="#D8D8D8" transform="translate(404,126)"/>
<path d="M0 0 C1.32 0 2.64 0 4 0 C4 4.95 4 9.9 4 15 C3.01 15 2.02 15 1 15 C-0.44207941 12.11584117 -0.09394887 9.58278472 -0.0625 6.375 C-0.05347656 5.18648437 -0.04445313 3.99796875 -0.03515625 2.7734375 C-0.02355469 1.85820312 -0.01195312 0.94296875 0 0 Z " fill="#ED1D25" transform="translate(276,160)"/>
<path d="M0 0 C2.31 0.66 4.62 1.32 7 2 C6.625 4.4375 6.625 4.4375 6 7 C5.01 7.495 5.01 7.495 4 8 C3.59270772 10.32156597 3.25561323 12.6568787 3 15 C2.01 15 1.02 15 0 15 C0 10.05 0 5.1 0 0 Z " fill="#EF3A41" transform="translate(598,161)"/>
<path d="M0 0 C0 1.98 0 3.96 0 6 C1.32 6 2.64 6 4 6 C4 4.02 4 2.04 4 0 C4.33 0 4.66 0 5 0 C5 5.28 5 10.56 5 16 C4.67 16 4.34 16 4 16 C4 13.69 4 11.38 4 9 C2.68 9 1.36 9 0 9 C0 11.31 0 13.62 0 16 C-0.33 16 -0.66 16 -1 16 C-1 13.69 -1 11.38 -1 9 C-1.99 9 -2.98 9 -4 9 C-3.4140625 2.84765625 -3.4140625 2.84765625 -3 1 C-1 0 -1 0 0 0 Z " fill="#F15C62" transform="translate(376,160)"/>
<path d="M0 0 C6.25 -0.48076923 6.25 -0.48076923 9.4375 1.5625 C11.5248128 4.81870797 11.2915423 7.20995016 11 11 C9.66666667 11 8.33333333 11 7 11 C6.690625 9.88625 6.38125 8.7725 6.0625 7.625 C5.17673517 4.2054845 5.17673517 4.2054845 4 2 C1.98330173 0.86649466 1.98330173 0.86649466 0 0 Z " fill="#ED2028" transform="translate(475,160)"/>
<path d="M0 0 C1.37478516 0.01740234 1.37478516 0.01740234 2.77734375 0.03515625 C3.69644531 0.04417969 4.61554688 0.05320313 5.5625 0.0625 C6.27277344 0.07410156 6.98304688 0.08570313 7.71484375 0.09765625 C8.37484375 1.41765625 9.03484375 2.73765625 9.71484375 4.09765625 C6.74484375 3.76765625 3.77484375 3.43765625 0.71484375 3.09765625 C0.38484375 5.73765625 0.05484375 8.37765625 -0.28515625 11.09765625 C-0.61515625 11.09765625 -0.94515625 11.09765625 -1.28515625 11.09765625 C-1.61515625 9.11765625 -1.94515625 7.13765625 -2.28515625 5.09765625 C-3.27515625 5.09765625 -4.26515625 5.09765625 -5.28515625 5.09765625 C-2.87806166 0.12299409 -2.87806166 0.12299409 0 0 Z " fill="#EF444B" transform="translate(248.28515625,159.90234375)"/>
<path d="M0 0 C2.375 1.375 2.375 1.375 4 3 C4 3.66 4 4.32 4 5 C3.2575 4.649375 2.515 4.29875 1.75 3.9375 C-1.1322726 2.95490707 -2.21176345 2.9673198 -5 4 C-5.33 6.31 -5.66 8.62 -6 11 C-6.33 11 -6.66 11 -7 11 C-7.12375 10.195625 -7.2475 9.39125 -7.375 8.5625 C-7.684375 7.2940625 -7.684375 7.2940625 -8 6 C-8.66 5.67 -9.32 5.34 -10 5 C-8.24196854 -0.27409438 -5.06100673 -0.51642926 0 0 Z " fill="#EF3D43" transform="translate(714,159)"/>
<path d="M0 0 C0.66 0.66 1.32 1.32 2 2 C-1 4 -1 4 -5 4 C-5.33 6.64 -5.66 9.28 -6 12 C-6.33 12 -6.66 12 -7 12 C-7 9.69 -7 7.38 -7 5 C-8.32 5.33 -9.64 5.66 -11 6 C-8.64505768 0.56551772 -5.79649433 -0.49331867 0 0 Z " fill="#F04A51" transform="translate(460,159)"/>
<path d="M0 0 C3.00092657 2.25069493 3.21031306 4.94640878 4 8.5 C2.35 8.5 0.7 8.5 -1 8.5 C-4 2.75 -4 2.75 -4 0.5 C-2 -0.5 -2 -0.5 0 0 Z " fill="#ED282F" transform="translate(441,167.5)"/>
<path d="M0 0 C0.99 0 1.98 0 3 0 C3 2.97 3 5.94 3 9 C2.34 9 1.68 9 1 9 C1 11.31 1 13.62 1 16 C0.67 16 0.34 16 0 16 C0 13.69 0 11.38 0 9 C-1.65 9 -3.3 9 -5 9 C-5 8.67 -5 8.34 -5 8 C-3.35 8 -1.7 8 0 8 C0 5.36 0 2.72 0 0 Z " fill="#EE3239" transform="translate(666,160)"/>
<path d="M0 0 C3 1 3 1 4 3 C4.13415472 5.6723621 4.04318541 8.32250488 4 11 C3.01 11.495 3.01 11.495 2 12 C2 11.34 2 10.68 2 10 C1.34 10 0.68 10 0 10 C0 6.7 0 3.4 0 0 Z " fill="#ED1E26" transform="translate(532,161)"/>
<path d="M0 0 C-2 3 -2 3 -5.5625 4.3125 C-7.2640625 5.1478125 -7.2640625 5.1478125 -9 6 C-10.05749557 9.08369887 -10.05749557 9.08369887 -10 12 C-10.66 11.67 -11.32 11.34 -12 11 C-11.76435605 6.91550495 -11.59037881 4.65785068 -8.8125 1.5625 C-5.58823227 -0.22875985 -3.63195497 -0.33785628 0 0 Z " fill="#EF4248" transform="translate(401,159)"/>
<path d="M0 0 C0.99 0 1.98 0 3 0 C3 3.3 3 6.6 3 10 C2.01 10 1.02 10 0 10 C-1.49106457 7.01787087 -1.11941467 4.28390342 -1 1 C-0.67 0.67 -0.34 0.34 0 0 Z " fill="#EC131B" transform="translate(450,164)"/>
<path d="M0 0 C2.475 0.495 2.475 0.495 5 1 C5 2.32 5 3.64 5 5 C3.68 5.33 2.36 5.66 1 6 C1.33 6.99 1.66 7.98 2 9 C1.5625 11.6875 1.5625 11.6875 1 14 C0.67 14 0.34 14 0 14 C0 9.38 0 4.76 0 0 Z " fill="#FBD8D9" transform="translate(436,162)"/>
<path d="M0 0 C0.33 0 0.66 0 1 0 C1.12375 0.763125 1.2475 1.52625 1.375 2.3125 C1.88102792 5.20267136 1.88102792 5.20267136 4 8 C-0.30769231 11.93846154 -0.30769231 11.93846154 -3.8125 12.25 C-4.534375 12.1675 -5.25625 12.085 -6 12 C-5.67 11.01 -5.34 10.02 -5 9 C-3.68 9 -2.36 9 -1 9 C-0.67 6.03 -0.34 3.06 0 0 Z " fill="#EF4046" transform="translate(481,165)"/>
<path d="M0 0 C0.33 0.99 0.66 1.98 1 3 C-1.97 2.505 -1.97 2.505 -5 2 C-5.33 2.66 -5.66 3.32 -6 4 C-6 3.34 -6 2.68 -6 2 C-8.51083114 3.25541557 -8.87125446 4.50063488 -10 7 C-10.25 4.6875 -10.25 4.6875 -10 2 C-6.86993817 -1.6116098 -4.40477201 -1.101193 0 0 Z " fill="#F04F56" transform="translate(651,160)"/>
<path d="M0 0 C0.66 0 1.32 0 2 0 C1.65660347 2.57547398 1.39993284 3.68894113 -0.6875 5.3125 C-3.72203131 6.21465796 -5.94880471 5.69345348 -9 5 C-8.67 4.01 -8.34 3.02 -8 2 C-5.36 2 -2.72 2 0 2 C0 1.34 0 0.68 0 0 Z " fill="#EF3D44" transform="translate(256,171)"/>
<path d="M0 0 C1.32 0 2.64 0 4 0 C4.1875 2.375 4.1875 2.375 4 5 C0.5647952 7.29013653 -0.985331 7.17842973 -5 7 C-4.0409375 6.6596875 -4.0409375 6.6596875 -3.0625 6.3125 C-0.72806339 5.14749104 -0.72806339 5.14749104 -0.25 2.375 C-0.1675 1.59125 -0.085 0.8075 0 0 Z " fill="#EC1A22" transform="translate(715,169)"/>
<path d="M0 0 C1.01508723 2.03017447 2.0210883 4.04780015 2.9375 6.125 C3.99740267 8.32357759 3.99740267 8.32357759 7 10 C1.46153846 10.36923077 1.46153846 10.36923077 -0.875 8.5 C-1.24625 8.005 -1.6175 7.51 -2 7 C-1.67 6.01 -1.34 5.02 -1 4 C-0.65772583 2.66893378 -0.32248257 1.33599921 0 0 Z " fill="#EC1D25" transform="translate(472,166)"/>
<path d="M0 0 C0.66 0 1.32 0 2 0 C1.5205537 4.21912747 0.83374881 6.79663178 -2 10 C-2.66 8.68 -3.32 7.36 -4 6 C-3.525625 5.566875 -3.05125 5.13375 -2.5625 4.6875 C-0.76313043 2.97690387 -0.76313043 2.97690387 0 0 Z " fill="#EF3E44" transform="translate(426,160)"/>
<path d="M0 0 C1.32 0.33 2.64 0.66 4 1 C3.67 2.65 3.34 4.3 3 6 C2.01 6 1.02 6 0 6 C0 4.02 0 2.04 0 0 Z " fill="#FEF1F1" transform="translate(601,162)"/>
<path d="M0 0 C2.31 0 4.62 0 7 0 C6.38125 0.2475 5.7625 0.495 5.125 0.75 C2.84998472 1.82396211 2.84998472 1.82396211 2 4.0625 C1 6 1 6 -1.125 6.75 C-2.053125 6.87375 -2.053125 6.87375 -3 7 C-3 6.34 -3 5.68 -3 5 C-2 4 -1 3 0 2 C0 1.34 0 0.68 0 0 Z " fill="#EC1A22" transform="translate(523,160)"/>
<path d="M0 0 C0.99 0 1.98 0 3 0 C3 1.65 3 3.3 3 5 C2.01 5.33 1.02 5.66 0 6 C-0.38218767 4.34385343 -0.71395102 2.67542976 -1 1 C-0.67 0.67 -0.34 0.34 0 0 Z " fill="#ED262E" transform="translate(607,162)"/>
<path d="M0 0 C1.99954746 -0.04254356 4.00041636 -0.04080783 6 0 C7 1 7 1 7.09765625 3.28515625 C7.08605469 4.20167969 7.07445312 5.11820313 7.0625 6.0625 C7.05347656 6.98160156 7.04445313 7.90070313 7.03515625 8.84765625 C7.02355469 9.55792969 7.01195312 10.26820313 7 11 C6.67 11 6.34 11 6 11 C5.855625 9.88625 5.71125 8.7725 5.5625 7.625 C5.21627965 4.17857953 5.21627965 4.17857953 4 2 C1.98330173 0.86649466 1.98330173 0.86649466 0 0 Z " fill="#F15D63" transform="translate(525,159)"/>
<path d="M0 0 C-0.61875 0.2475 -1.2375 0.495 -1.875 0.75 C-4.38895216 2.22879539 -4.8534051 3.37921165 -6 6 C-6.66 6.66 -7.32 7.32 -8 8 C-8.36075949 3.55063291 -8.36075949 3.55063291 -6.8125 1.1875 C-4.44017475 -0.36678206 -2.77958655 -0.22537188 0 0 Z " fill="#F04F55" transform="translate(301,159)"/>
<path d="M0 0 C2.4375 0.8125 2.4375 0.8125 5 2 C5.33 2.99 5.66 3.98 6 5 C3.69 4.67 1.38 4.34 -1 4 C-0.67 2.68 -0.34 1.36 0 0 Z " fill="#F1585E" transform="translate(524,172)"/>
<path d="M0 0 C1.9375 0.3125 1.9375 0.3125 4 1 C4.33 1.99 4.66 2.98 5 4 C3.68 4.33 2.36 4.66 1 5 C0.67 3.35 0.34 1.7 0 0 Z " fill="#ED2028" transform="translate(602,168)"/>
<path d="M0 0 C0.33 0 0.66 0 1 0 C1.125 3.375 1.125 3.375 1 7 C0.34 7.66 -0.32 8.32 -1 9 C-2.0326802 6.21176345 -2.04509293 5.1322726 -1.0625 2.25 C-0.711875 1.5075 -0.36125 0.765 0 0 Z " fill="#ED242C" transform="translate(451,165)"/>
</svg>
